<svg xmlns="http://www.w3.org/2000/svg" width="32" height="32" viewBox="0 0 32 32"><path d="M16 0C7.164 0 0 7.164 0 16c0 7.07 4.584 13.066 10.942 15.182.8.146 1.092-.348 1.092-.77 0-.381-.015-1.643-.022-2.979-4.449.967-5.39-1.887-5.39-1.887-.729-1.848-1.776-2.34-1.776-2.34-1.454-.992.11-.973.11-.973 1.606.111 2.452 1.648 2.452 1.648 1.428 2.445 3.746 1.738 4.656 1.328.145-1.031.559-1.738 1.016-2.137-3.552-.404-7.288-1.777-7.288-7.908 0-1.748.624-3.174 1.646-4.294-.163-.406-.714-2.034.158-4.236 0 0 1.342-.43 4.4 1.641A15.255 15.255 0 0 1 16 7.737c1.359.006 2.729.184 4.006.54 3.053-2.072 4.396-1.641 4.396-1.641.875 2.204.324 3.83.16 4.234 1.025 1.12 1.645 2.546 1.645 4.294 0 6.146-3.742 7.5-7.307 7.896.576.496 1.086 1.469 1.086 2.961 0 2.139-.021 3.863-.021 4.391 0 .426.291.924 1.102.768 6.354-2.119 10.934-8.115 10.934-15.182 0-8.836-7.164-16-16-16z"/></svg>